<svg width="52" height="52" viewBox="0 0 52 52" fill="none" xmlns="http://www.w3.org/2000/svg">
<path d="M27.1972 20.8333L20.0452 27.9853C19.5305 28.5166 19.2453 29.2289 19.2511 29.9686C19.257 30.7083 19.5534 31.416 20.0765 31.9391C20.5995 32.4621 21.3072 32.7585 22.0469 32.7644C22.7866 32.7702 23.4989 32.485 24.0302 31.9703L33.411 22.6023C33.8635 22.1607 34.2238 21.6338 34.471 21.0519C34.7182 20.47 34.8475 19.8449 34.8513 19.2127C34.8552 18.5805 34.7335 17.9538 34.4933 17.369C34.2532 16.7842 33.8993 16.2529 33.4523 15.8059C33.0052 15.3588 32.4739 15.005 31.8891 14.7648C31.3043 14.5246 30.6776 14.4029 30.0454 14.4068C29.4132 14.4106 28.7881 14.5399 28.2062 14.7871C27.6244 15.0344 27.0974 15.3947 26.6558 15.8471L17.2182 25.2846C16.5798 25.9048 16.0711 26.6458 15.7215 27.4643C15.372 28.2829 15.1887 29.1628 15.1823 30.0529C15.1758 30.9429 15.3464 31.8254 15.684 32.6489C16.0217 33.4725 16.5197 34.2207 17.149 34.8501C17.7784 35.4794 18.5266 35.9774 19.3502 36.3151C20.1737 36.6527 21.0562 36.8233 21.9462 36.8168C22.8363 36.8104 23.7162 36.6271 24.5348 36.2776C25.3533 35.928 26.0943 35.4193 26.7145 34.7809L35.5335 25.9618" stroke="#0A5F88" stroke-width="2.25" stroke-miterlimit="10" stroke-linecap="round"/>
</svg>
