<svg width="31" height="30" viewBox="0 0 31 30" fill="none" xmlns="http://www.w3.org/2000/svg">
<path d="M27.5556 0C28.4691 0 29.3452 0.351189 29.9911 0.976311C30.6371 1.60143 31 2.44928 31 3.33333V26.6667C31 27.5507 30.6371 28.3986 29.9911 29.0237C29.3452 29.6488 28.4691 30 27.5556 30H3.44444C2.53092 30 1.65481 29.6488 1.00885 29.0237C0.362896 28.3986 0 27.5507 0 26.6667V3.33333C0 2.44928 0.362896 1.60143 1.00885 0.976311C1.65481 0.351189 2.53092 0 3.44444 0H27.5556ZM26.6944 25.8333V17C26.6944 15.559 26.1029 14.177 25.05 13.1581C23.9971 12.1391 22.569 11.5667 21.08 11.5667C19.6161 11.5667 17.9111 12.4333 17.0844 13.7333V11.8833H12.2794V25.8333H17.0844V17.6167C17.0844 16.3333 18.1522 15.2833 19.4783 15.2833C20.1178 15.2833 20.7311 15.5292 21.1832 15.9668C21.6354 16.4043 21.8894 16.9978 21.8894 17.6167V25.8333H26.6944ZM6.68222 9.26667C7.44958 9.26667 8.18551 8.97167 8.72812 8.44657C9.27072 7.92146 9.57556 7.20927 9.57556 6.46667C9.57556 4.91667 8.28389 3.65 6.68222 3.65C5.9103 3.65 5.16998 3.94675 4.62415 4.47498C4.07831 5.00321 3.77167 5.71964 3.77167 6.46667C3.77167 8.01667 5.08056 9.26667 6.68222 9.26667ZM9.07611 25.8333V11.8833H4.30556V25.8333H9.07611Z" fill="#F7F7F7"/>
</svg>
